<?xml version="1.0" standalone="no"?>
<!DOCTYPE svg PUBLIC "-//W3C//DTD SVG 20010904//EN"
 "http://www.w3.org/TR/2001/REC-SVG-20010904/DTD/svg10.dtd">
<svg version="1.0" xmlns="http://www.w3.org/2000/svg"
 width="512.000000pt" height="512.000000pt" viewBox="0 0 512.000000 512.000000"
 preserveAspectRatio="xMidYMid meet">
<metadata>
Created by potrace 1.14, written by Peter Selinger 2001-2017
</metadata>
<g transform="translate(0.000000,512.000000) scale(0.100000,-0.100000)"
fill="#000000" stroke="none">
<path d="M3810 5105 c-254 -46 -486 -166 -654 -339 -82 -83 -163 -196 -210
-289 l-40 -78 -45 5 c-127 15 -215 20 -306 20 -101 -1 -252 -10 -291 -18 -12
-2 -39 -7 -60 -11 -80 -12 -101 -17 -194 -40 -134 -34 -346 -112 -420 -153 -8
-5 -46 -26 -85 -47 -297 -161 -588 -425 -773 -703 -206 -308 -320 -615 -367
-982 -12 -98 -13 -444 -1 -510 2 -14 7 -47 10 -74 4 -27 18 -99 31 -160 154
-682 626 -1253 1270 -1538 300 -133 584 -189 930 -182 105 2 201 5 215 7 14 3
43 8 65 11 22 3 51 8 65 11 14 2 36 7 50 9 116 20 439 120 535 165 70 33 202
116 260 164 11 8 56 43 100 76 498 374 819 952 872 1571 12 138 6 406 -11 485
-2 11 -7 42 -10 69 -4 27 -9 52 -11 56 -2 3 -6 25 -10 50 -9 58 -67 248 -105
345 -110 276 -270 522 -478 733 -59 60 -124 123 -144 140 l-38 31 58 37 c243
156 380 323 513 629 28 66 64 147 79 180 125 276 125 274 50 276 -19 0 -44 2
-55 4 -11 2 -42 7 -70 10 -27 3 -66 8 -85 11 -19 2 -51 6 -70 8 -82 9 -157 18
-180 22 -63 12 -319 11 -390 -1z m365 -179 c11 -2 49 -7 85 -11 98 -10 192
-23 196 -28 5 -4 -111 -270 -157 -360 -103 -203 -284 -374 -489 -463 -135 -59
-275 -88 -415 -88 -58 1 -189 11 -230 19 -11 2 -22 4 -24 4 -5 1 155 106 359
235 363 229 426 270 443 289 40 46 6 131 -58 143 -35 6 -66 -12 -710 -424
-210 -135 -199 -129 -187 -106 15 29 62 134 62 139 0 15 67 144 108 205 155
239 420 409 697 449 57 8 278 7 320 -3z m-1425 -690 c41 -4 76 -8 77 -10 4 -3
-112 -264 -121 -273 -4 -4 -67 -8 -139 -9 -73 -1 -137 -2 -143 -3 -8 -1 -9
-14 -4 -43 5 -24 11 -70 15 -103 4 -33 9 -69 10 -80 2 -11 6 -43 9 -70 4 -28
8 -61 11 -75 2 -14 7 -45 10 -70 3 -25 7 -61 10 -80 3 -19 7 -54 10 -78 l5
-44 -32 7 c-60 13 -159 67 -213 117 -66 60 -132 158 -170 253 -34 84 -49 103
-89 114 -67 18 -123 -46 -104 -118 17 -64 96 -214 151 -286 68 -89 150 -156
252 -205 129 -62 247 -86 475 -95 220 -8 340 -27 528 -80 206 -59 340 -136
479 -275 179 -179 305 -440 359 -743 90 -514 -59 -1065 -377 -1394 -176 -182
-546 -338 -949 -398 -66 -10 -365 -13 -440 -4 -115 13 -164 19 -180 24 -8 2
-29 7 -47 10 -137 23 -393 118 -547 203 -136 75 -206 122 -331 226 -366 303
-628 751 -700 1195 -3 19 -7 37 -9 40 -25 42 -26 560 -1 633 2 7 6 30 9 50 22
147 84 342 162 508 309 654 971 1112 1674 1156 52 4 96 7 97 8 5 4 179 -1 253
-8z m238 -402 c34 -3 124 -14 199 -23 138 -17 275 -20 368 -7 57 8 135 25 191
41 17 5 43 -11 119 -75 326 -274 548 -622 660 -1035 15 -55 29 -107 29 -115 1
-8 5 -31 9 -50 34 -180 41 -487 13 -637 -2 -10 -7 -38 -11 -63 -30 -196 -126
-469 -227 -645 -53 -91 -80 -135 -83 -135 -2 0 7 38 20 85 13 47 27 103 30
123 3 20 7 44 10 52 4 16 12 74 21 160 7 71 7 294 0 345 -3 22 -8 62 -11 89
-14 125 -61 307 -115 441 -75 189 -171 337 -310 475 -191 191 -341 270 -670
351 -95 23 -266 47 -367 51 -24 1 -43 4 -43 7 0 3 5 35 10 71 8 60 12 89 26
205 2 22 7 51 9 65 6 36 13 87 20 155 7 59 20 89 34 80 4 -2 35 -7 69 -11z
m-292 -119 c-4 -46 -10 -87 -21 -155 -2 -14 -4 -41 -5 -60 -2 -51 -16 -12 -24
70 -9 87 -14 129 -21 165 -5 30 -4 31 35 30 l41 0 -5 -50z"/>
<path d="M1312 3442 c-59 -32 -259 -300 -276 -368 -17 -65 50 -125 114 -103
24 9 45 32 87 98 46 70 118 168 143 191 86 82 77 176 -20 195 -10 2 -32 -4
-48 -13z"/>
<path d="M930 2784 c-33 -23 -38 -31 -51 -79 -40 -144 -59 -293 -60 -455 0
-153 6 -226 32 -355 40 -199 82 -302 126 -306 7 -1 19 -2 26 -3 20 -4 66 23
78 45 14 26 8 69 -25 183 -25 88 -28 105 -41 201 -4 28 -9 61 -11 75 -6 36 -6
246 1 305 7 67 33 209 49 265 15 56 11 82 -18 109 -32 30 -76 36 -106 15z"/>
</g>
</svg>
